<svg width="120" height="146" viewBox="0 0 120 146" fill="none" xmlns="http://www.w3.org/2000/svg">
<g filter="url(#filter0_d_0_1)">
<path d="M45.8034 55.7778C45.9698 55.7767 46.1352 55.7743 46.2996 55.7708C47.9976 55.684 50.3986 55.915 51.8942 57.3656C54.8581 59.9029 56.1594 63.7238 56.5274 67.9681C56.9478 73.773 56.288 75.1636 56.95 80.3633C57.0487 81.0894 57.1517 81.8746 57.2516 82.7448C58.3881 90.3885 55.4641 98.0059 54.2935 101.013C53.6964 102.807 53.1357 103.526 52.529 104.626C52.021 105.57 51.4174 106.701 50.3199 108.5C47.6603 112.613 45.2288 114.367 41.992 116.821C40.9933 117.588 39.2886 118.814 37.7212 120.478C33.8057 124.912 26.3346 125.608 23.5614 126.77C23.1806 126.91 22.7959 127.051 22.4223 127.197C19.1248 128.447 15.5239 129.638 12.6443 130.05C12.6398 130.051 12.6263 130.053 12.6217 130.053C12.082 130.084 11.6036 130.092 11.1707 130.142C10.2334 130.245 9.50502 130.438 8.94061 130.591C8.70224 130.656 8.57607 130.65 8.55347 130.599C8.55346 130.599 8.55344 130.599 8.55343 130.599C8.52713 130.535 8.66457 130.4 8.96267 130.276C9.83739 129.889 11.1131 129.559 12.5319 129.345L12.5125 129.348C13.3625 129.126 14.2736 128.764 15.229 128.341C18.2369 126.976 19.5832 126.558 21.9445 125.802C23.2526 125.379 24.8741 125.024 27.1652 124.37C31.2167 123.193 34.1527 121.829 36.3034 119.255C37.9093 117.349 39.9015 115.816 42.2475 113.906C46.6238 110.255 48.0935 107.946 49.8339 103.613C50.561 101.546 51.7406 99.3999 52.9497 96.5467C55.7985 89.0193 54.5571 85.8658 53.6208 80.8296C53.1803 78.8275 52.8155 76.4599 52.5338 73.394C52.0255 68.5999 52.0171 62.7589 49.3515 59.9412C48.9374 59.5142 48.7373 59.3808 48.2718 59.2385C47.815 59.107 47.1693 59.065 46.4975 59.0849C41.6317 59.2275 37.3586 59.637 34.5831 60.2798C31.0762 61.0957 25.85 62.6705 25.1537 66.3287C24.8077 68.2452 24.8058 70.6148 25.2638 72.5868C25.6081 73.9722 26.0293 74.7253 26.9279 75.1165C27.2779 75.2719 27.7229 75.3773 28.2245 75.4263C37.6297 76.6929 48.8775 78.2413 57.1296 73.4591C58.2537 72.8353 59.3808 72.0677 60.4577 71.1525C68.4916 65.0173 75.1448 54.7361 77.732 49.2489C80.212 44.257 80.9991 42.1856 82.2606 38.2728C82.5695 37.2851 82.9008 36.1825 83.269 34.8829C84.3048 31.1526 85.9368 26.0809 86.6934 21.6564C86.9712 19.423 87.2544 19.9024 87.1805 22.2372C86.9629 25.6319 86.1062 28.2785 85.9726 30.0384C85.6624 33.4583 85.4505 34.9725 83.8684 38.8018C83.8276 38.9001 83.7859 38.9996 83.7432 39.1003C82.0066 43.1488 81.9835 45.3454 80.8987 47.6944C79.6111 49.9419 80.0136 50.0888 73.2678 61.3623C69.5364 67.1112 65.6426 70.8518 62.6861 73.6169C59.7118 76.3902 56.8461 77.7729 54.4994 78.6658C49.5398 80.9571 38.6241 80.3991 30.839 79.2013C29.9521 79.1038 28.9558 78.9884 27.927 78.91C26.7412 78.816 25.2385 78.5028 23.9581 77.4109C22.6701 76.3179 22.0803 74.7663 21.7525 73.4827C21.127 70.8422 21.103 68.3027 21.5647 65.6265C22.2574 61.9325 25.3905 59.8253 27.6729 58.7464C30.0698 57.616 32.1996 57.0826 33.7643 56.6725C40.3917 55.1845 40.474 55.904 45.8034 55.7778Z" fill="#707070"/>
</g>
<g filter="url(#filter1_d_0_1)">
<path d="M5.66116 132.576C5.55585 132.81 5.59648 133.053 5.68904 133.249C5.77491 133.443 5.95036 133.598 5.9707 133.53C6.02834 133.596 6.07719 133.661 6.12008 133.738C6.39772 134.175 6.28906 134.522 7.03258 134.693C7.77238 134.816 8.70114 134.985 9.11529 134.869C9.53526 134.747 9.57165 135.126 10.1817 135.073C10.478 135.051 10.7237 135.069 10.9538 135.121C10.9596 135.121 10.9767 135.125 10.9825 135.126C11.2134 135.193 11.4246 135.288 11.6705 135.415C12.1174 135.639 13.4583 136.107 14.1104 136.178C14.114 136.178 14.1244 136.182 14.1279 136.183C14.1719 136.191 14.2127 136.197 14.2502 136.201C14.8677 136.275 15.3352 136.785 15.6838 136.973C15.7907 137.033 15.8718 137.089 15.9322 137.14C15.9578 137.161 15.9638 137.189 15.956 137.213C15.956 137.213 15.956 137.213 15.9559 137.213C15.9462 137.242 15.915 137.263 15.8757 137.254C15.6842 137.209 15.3917 137.157 15.0268 137.127C14.4692 137.082 14.3914 136.9 13.9287 136.738L13.9475 136.744C13.839 136.715 13.7116 136.687 13.5563 136.663C12.6961 136.533 12.1464 136.601 11.2036 136.235C11.0431 136.173 10.8994 136.138 10.7655 136.119L10.7933 136.124C10.1576 136.081 9.84266 136.427 8.63954 136.147C7.18894 135.715 6.89354 136.59 5.14942 135.563C4.79687 135.3 4.49815 134.939 4.2849 134.558C3.74372 133.398 4.11449 132.738 4.25386 132.141C4.42633 131.616 4.58302 131.158 4.65403 130.827C4.83658 129.974 5.06752 128.826 5.46911 127.663C5.86897 126.5 6.08625 124.99 6.5566 123.734C6.68137 123.4 6.8165 123.025 6.94273 122.649C7.30703 121.54 7.77642 120.42 8.05006 119.824C8.42484 119.013 8.51851 118.817 8.69679 117.984C8.79828 117.505 9.02794 116.883 9.30468 116.369C9.44109 116.109 9.5374 116.189 9.52334 116.487C9.49942 116.921 9.35233 117.243 9.42305 117.491C9.56209 117.987 9.60659 118.199 9.29278 118.677C8.97879 119.153 9.24592 119.506 9.11265 119.797C8.98379 120.087 8.76249 120.023 8.48321 121.609C8.39557 122.131 8.32811 122.571 8.27716 122.947C8.15955 123.759 8.04416 124.288 7.96434 124.698C7.84479 125.309 7.32502 126.5 7.12378 127.481C6.92018 128.464 6.33552 130.404 6.25061 131.219C6.1688 131.976 5.96416 131.98 5.71335 132.47C5.69578 132.502 5.67829 132.538 5.66116 132.576Z" fill="#707070"/>
</g>
<g filter="url(#filter2_dg_0_1)">
<path d="M69.1761 13.7397C69.1761 13.8569 69.1566 13.9741 69.1175 14.0912C69.0863 14.2006 69.0511 14.31 69.0121 14.4194C68.8402 14.8647 68.6293 15.2787 68.3793 15.6616C68.1293 16.0366 67.8402 16.3608 67.5121 16.6342C67.184 16.9077 66.8129 17.1225 66.3988 17.2787C65.9847 17.435 65.5277 17.5131 65.0277 17.5131C64.3636 17.5131 63.7933 17.3725 63.3168 17.0912C62.8402 16.81 62.434 16.4467 62.098 16.0014C61.7621 15.5483 61.4847 15.0444 61.266 14.4897C61.055 13.935 60.8871 13.3803 60.7621 12.8256C60.5746 12.0209 60.43 11.2162 60.3285 10.4116C60.2269 9.59906 60.1761 8.78656 60.1761 7.97406C60.1761 7.4975 60.1957 7.00531 60.2347 6.4975C60.2816 5.98969 60.3597 5.48969 60.4691 4.9975C60.5785 4.4975 60.7269 4.01703 60.9144 3.55609C61.1019 3.08734 61.3363 2.65765 61.6175 2.26703C61.8988 1.86859 62.2308 1.51703 62.6136 1.21234C63.0043 0.907654 63.4574 0.669373 63.973 0.497498C64.1605 0.427185 64.3558 0.38031 64.559 0.356873C64.7621 0.325623 64.9652 0.309998 65.1683 0.309998C65.5746 0.309998 65.9613 0.376404 66.3285 0.509216C66.6957 0.642029 67.016 0.829529 67.2894 1.07172C67.5707 1.3139 67.7894 1.60687 67.9457 1.95062C68.1097 2.29437 68.1918 2.67719 68.1918 3.09906C68.1918 3.23969 68.1605 3.34515 68.098 3.41547C68.0355 3.48578 67.9261 3.52094 67.7699 3.52094C67.4808 3.52094 67.2543 3.47406 67.0902 3.38031C66.934 3.28656 66.805 3.16937 66.7035 3.02875C66.6019 2.88812 66.516 2.73578 66.4457 2.57172C66.3832 2.40765 66.305 2.25531 66.2113 2.11469C66.1175 1.97406 65.9925 1.85687 65.8363 1.76312C65.68 1.66937 65.4652 1.6225 65.1918 1.6225C64.9183 1.6225 64.6605 1.67719 64.4183 1.78656C64.184 1.88812 63.9652 2.02484 63.7621 2.19672C63.5668 2.36859 63.3871 2.5639 63.223 2.78265C63.0668 2.99359 62.9261 3.20844 62.8011 3.42719C62.473 4.03656 62.2425 4.6889 62.1097 5.38422C61.9769 6.07172 61.9105 6.76312 61.9105 7.45844C61.9105 7.69281 61.9183 7.9975 61.934 8.3725C61.9574 8.73969 61.9886 9.14594 62.0277 9.59125C62.0746 10.0366 62.1371 10.5092 62.2152 11.0092C62.2933 11.5014 62.3871 11.9858 62.4965 12.4623C62.6136 12.9389 62.7504 13.3959 62.9066 13.8334C63.0707 14.2709 63.2543 14.6537 63.4574 14.9819C63.6683 15.31 63.9027 15.5717 64.1605 15.767C64.4261 15.9623 64.723 16.06 65.0511 16.06C65.3871 16.06 65.684 15.9741 65.9418 15.8022C66.1996 15.6225 66.4183 15.3998 66.598 15.1342C66.7855 14.8608 66.9379 14.5678 67.055 14.2553C67.18 13.935 67.2777 13.6381 67.348 13.3647C67.3715 13.2866 67.391 13.2162 67.4066 13.1537C67.43 13.0912 67.4574 13.0366 67.4886 12.9897C67.5277 12.9428 67.5746 12.9077 67.6293 12.8842C67.684 12.8608 67.7621 12.8491 67.8636 12.8491C67.973 12.8491 68.1019 12.8725 68.2504 12.9194C68.4066 12.9584 68.5511 13.017 68.684 13.0952C68.8246 13.1733 68.9418 13.267 69.0355 13.3764C69.1293 13.4858 69.1761 13.6069 69.1761 13.7397ZM72.5277 17.5483C72.5277 17.6577 72.5004 17.7475 72.4457 17.8178C72.391 17.8881 72.3207 17.9428 72.2347 17.9819C72.1566 18.0287 72.0668 18.06 71.9652 18.0756C71.8715 18.0991 71.7855 18.1108 71.7074 18.1108C71.434 18.1108 71.1957 18.0327 70.9925 17.8764C70.7894 17.7202 70.6136 17.517 70.4652 17.267C70.3168 17.0248 70.1957 16.7475 70.1019 16.435C70.0082 16.1147 69.93 15.7983 69.8675 15.4858C69.805 15.1655 69.7582 14.8608 69.7269 14.5717C69.6957 14.2748 69.6722 14.0209 69.6566 13.81C69.5863 13.0834 69.5355 12.3452 69.5043 11.5952C69.4808 10.8452 69.4691 10.103 69.4691 9.36859C69.4691 7.36078 69.5394 5.3725 69.68 3.40375C69.68 3.3725 69.68 3.33734 69.68 3.29828C69.6879 3.25922 69.6918 3.22015 69.6918 3.18109C69.6996 3.01703 69.7074 2.82953 69.7152 2.61859C69.723 2.39984 69.7347 2.185 69.7504 1.97406C69.766 1.76312 69.7816 1.57172 69.7972 1.39984C69.8207 1.22015 69.848 1.09515 69.8793 1.02484V1.03656C69.9105 0.927185 69.9535 0.845154 70.0082 0.790466C70.0629 0.735779 70.1566 0.708435 70.2894 0.708435C70.5707 0.708435 70.809 0.802185 71.0043 0.989685C71.1996 1.17719 71.2972 1.41156 71.2972 1.69281C71.2972 1.75531 71.2933 1.81781 71.2855 1.88031C71.2855 1.935 71.2816 1.98969 71.2738 2.04437C71.266 2.09906 71.2582 2.15375 71.2504 2.20844C71.2504 2.25531 71.2504 2.29828 71.2504 2.33734C71.2269 2.64203 71.2074 2.94672 71.1918 3.2514C71.184 3.54828 71.1722 3.84906 71.1566 4.15375C71.1175 4.82562 71.0863 5.4975 71.0629 6.16937C71.0472 6.83344 71.0394 7.50531 71.0394 8.185C71.0394 8.47406 71.0433 8.85297 71.0511 9.32172C71.059 9.79047 71.0746 10.3022 71.098 10.8569C71.1215 11.4037 71.1527 11.9702 71.1918 12.5561C71.2386 13.142 71.2972 13.7006 71.3675 14.2319C71.4379 14.7631 71.5199 15.2436 71.6136 15.6733C71.7152 16.103 71.8324 16.435 71.9652 16.6694C72.0355 16.7006 72.1019 16.7514 72.1644 16.8217C72.2347 16.8842 72.2933 16.9584 72.3402 17.0444C72.3949 17.1225 72.4379 17.2045 72.4691 17.2905C72.5082 17.3842 72.5277 17.4702 72.5277 17.5483ZM74.3441 7.35297C74.3441 7.48578 74.3129 7.58344 74.2504 7.64594C74.1957 7.70062 74.0902 7.72797 73.934 7.72797C73.8636 7.72797 73.7543 7.72015 73.6058 7.70453C73.4574 7.68109 73.305 7.64984 73.1488 7.61078C73.0004 7.57172 72.8675 7.51703 72.7504 7.44672C72.641 7.3764 72.5863 7.29047 72.5863 7.1889C72.5863 7.15765 72.598 7.07172 72.6215 6.93109C72.6449 6.78265 72.6722 6.6264 72.7035 6.46234C72.7425 6.29828 72.7738 6.14984 72.7972 6.01703C72.8285 5.88422 72.8519 5.81 72.8675 5.79437V5.80609C72.9066 5.74359 72.9535 5.70453 73.0082 5.6889C73.0629 5.67328 73.1175 5.66547 73.1722 5.66547C73.2425 5.66547 73.3324 5.67719 73.4418 5.70062C73.559 5.71625 73.6722 5.74359 73.7816 5.78265C73.8988 5.8139 74.0043 5.85687 74.098 5.91156C74.1918 5.96625 74.2504 6.02484 74.2738 6.08734C74.2972 6.14984 74.309 6.23578 74.309 6.34515C74.3168 6.44672 74.3168 6.54047 74.309 6.6264C74.309 6.65765 74.305 6.69672 74.2972 6.74359C74.2972 6.78265 74.2972 6.8139 74.2972 6.83734C74.2972 6.8764 74.2972 6.91547 74.2972 6.95453C74.305 6.99359 74.3129 7.03265 74.3207 7.07172C74.3285 7.11078 74.3324 7.15375 74.3324 7.20062C74.3402 7.2475 74.3441 7.29828 74.3441 7.35297ZM74.7777 16.6928C74.7777 16.8725 74.7347 17.0014 74.6488 17.0795C74.5707 17.1498 74.4418 17.185 74.2621 17.185C74.1683 17.185 74.0629 17.1733 73.9457 17.1498C73.8363 17.1264 73.7269 17.0952 73.6175 17.0561C73.5082 17.0092 73.4066 16.9545 73.3129 16.892C73.2191 16.8295 73.1488 16.7592 73.1019 16.6811C73.0707 16.6342 73.0433 16.4897 73.0199 16.2475C72.9965 16.0053 72.9769 15.7045 72.9613 15.3452C72.9535 14.9858 72.9418 14.5834 72.9261 14.1381C72.9183 13.6928 72.9105 13.2436 72.9027 12.7905C72.9027 12.3373 72.9027 11.8959 72.9027 11.4662C72.9027 11.0366 72.9027 10.6616 72.9027 10.3412V9.4389C72.9027 9.36078 72.9027 9.28265 72.9027 9.20453C72.9105 9.1264 72.9261 9.06 72.9496 9.00531C72.9808 8.94281 73.0238 8.89203 73.0785 8.85297C73.141 8.8139 73.2269 8.79437 73.3363 8.79437C73.68 8.79437 73.93 8.89203 74.0863 9.08734C74.2504 9.27484 74.3519 9.52875 74.391 9.84906C74.43 10.3256 74.4574 10.8022 74.473 11.2787C74.4965 11.7475 74.516 12.2241 74.5316 12.7084C74.5472 13.1459 74.559 13.5795 74.5668 14.0092C74.5824 14.4311 74.6097 14.853 74.6488 15.2748C74.6566 15.3608 74.6644 15.4428 74.6722 15.5209C74.68 15.5991 74.6918 15.6772 74.7074 15.7553C74.723 15.9116 74.7386 16.0678 74.7543 16.2241C74.7699 16.3725 74.7777 16.5287 74.7777 16.6928ZM80.4613 14.5834C80.4613 14.7475 80.434 14.9155 80.3793 15.0873C80.3246 15.2592 80.2621 15.4233 80.1918 15.5795C80.098 15.8061 79.9847 16.0287 79.8519 16.2475C79.7191 16.4584 79.5668 16.6498 79.3949 16.8217C79.223 16.9858 79.0277 17.1186 78.809 17.2202C78.5902 17.3217 78.3441 17.3725 78.0707 17.3725C77.5863 17.3725 77.184 17.2514 76.8636 17.0092C76.5433 16.767 76.2894 16.4623 76.1019 16.0952C75.9144 15.728 75.7816 15.3256 75.7035 14.8881C75.6332 14.4506 75.598 14.0366 75.598 13.6459C75.598 13.3569 75.6097 13.017 75.6332 12.6264C75.6566 12.228 75.6996 11.8178 75.7621 11.3959C75.8324 10.9741 75.93 10.5561 76.055 10.142C76.1879 9.72797 76.3558 9.36078 76.559 9.04047C76.7621 8.71234 77.0082 8.44672 77.2972 8.24359C77.5941 8.04047 77.9457 7.9389 78.3519 7.9389C78.4379 7.9389 78.5629 7.95453 78.7269 7.98578C78.891 8.01703 79.0511 8.0639 79.2074 8.1264C79.3715 8.18109 79.5121 8.25922 79.6293 8.36078C79.7543 8.45453 79.8168 8.5639 79.8168 8.6889C79.8168 8.80609 79.7621 8.89594 79.6527 8.95844C79.5511 9.02094 79.4261 9.06781 79.2777 9.09906C79.1371 9.1225 78.9886 9.13812 78.8324 9.14594C78.684 9.14594 78.5629 9.14594 78.4691 9.14594H78.2582C78.0394 9.34125 77.8597 9.63031 77.7191 10.0131C77.5785 10.3881 77.4691 10.7905 77.391 11.2202C77.3129 11.6498 77.2582 12.0756 77.2269 12.4975C77.1957 12.9116 77.18 13.2514 77.18 13.517C77.18 13.892 77.2074 14.2631 77.2621 14.6303C77.3246 14.9897 77.4457 15.3295 77.6254 15.6498C77.6644 15.7202 77.7191 15.8022 77.7894 15.8959C77.8675 15.9819 77.9535 16.0248 78.0472 16.0248C78.1175 16.0248 78.1879 15.9662 78.2582 15.8491C78.3363 15.7319 78.4066 15.5952 78.4691 15.4389C78.5316 15.2827 78.5824 15.1303 78.6215 14.9819C78.6605 14.8334 78.6879 14.7241 78.7035 14.6537C78.7113 14.6225 78.7152 14.5873 78.7152 14.5483C78.7152 14.5092 78.7152 14.4702 78.7152 14.4311C78.7152 14.3608 78.7152 14.2944 78.7152 14.2319C78.723 14.1616 78.7347 14.1069 78.7504 14.0678C78.805 13.935 78.8754 13.8452 78.9613 13.7983C79.055 13.7514 79.1683 13.728 79.3011 13.728C79.4183 13.728 79.5433 13.7436 79.6761 13.7748C79.809 13.8061 79.934 13.8569 80.0511 13.9272C80.1683 13.9975 80.266 14.0873 80.3441 14.1967C80.4222 14.3061 80.4613 14.435 80.4613 14.5834ZM86.7425 17.3842C86.7425 17.4702 86.6957 17.5483 86.6019 17.6186C86.5082 17.6889 86.3988 17.7475 86.2738 17.7944C86.1566 17.8412 86.0355 17.8764 85.9105 17.8998C85.7855 17.9311 85.6879 17.9467 85.6175 17.9467C85.4847 17.9467 85.3636 17.9194 85.2543 17.8647C85.1449 17.8178 85.0433 17.7553 84.9496 17.6772C84.8558 17.5991 84.766 17.5131 84.68 17.4194C84.6019 17.3256 84.5277 17.2319 84.4574 17.1381C84.184 16.8022 83.9027 16.4272 83.6136 16.0131C83.3246 15.5991 83.0668 15.2045 82.8402 14.8295C82.8402 14.8608 82.8441 14.8998 82.8519 14.9467C82.8597 14.9936 82.8636 15.0327 82.8636 15.0639C82.8793 15.228 82.891 15.392 82.8988 15.5561C82.9144 15.7123 82.934 15.8725 82.9574 16.0366C82.9652 16.1303 82.973 16.2241 82.9808 16.3178C82.9965 16.4037 83.0121 16.4975 83.0277 16.5991C83.0433 16.7241 83.059 16.8491 83.0746 16.9741C83.0902 17.0991 83.098 17.228 83.098 17.3608C83.098 17.5248 83.0511 17.6342 82.9574 17.6889C82.8636 17.7514 82.7386 17.7827 82.5824 17.7827C82.473 17.7827 82.3558 17.7748 82.2308 17.7592C82.1058 17.7436 81.9847 17.7123 81.8675 17.6655C81.7504 17.6186 81.6449 17.5561 81.5511 17.478C81.4574 17.3998 81.3871 17.2983 81.3402 17.1733C81.3168 17.0795 81.2933 16.9037 81.2699 16.6459C81.2465 16.3881 81.2269 16.103 81.2113 15.7905C81.1957 15.4702 81.18 15.1498 81.1644 14.8295C81.1566 14.5092 81.1488 14.2436 81.141 14.0327C81.141 13.9858 81.1371 13.9467 81.1293 13.9155C81.1293 13.8842 81.1293 13.853 81.1293 13.8217C81.0668 13.767 81.0121 13.7006 80.9652 13.6225C80.9183 13.5444 80.8949 13.4702 80.8949 13.3998C80.8949 13.2983 80.9144 13.2084 80.9535 13.1303C80.9925 13.0522 81.0355 12.978 81.0824 12.9077C81.0355 11.9467 81.0121 10.9897 81.0121 10.0366C81.0121 9.2475 81.0199 8.46625 81.0355 7.69281C81.059 6.91156 81.0785 6.13031 81.0941 5.34906L81.1293 3.77875C81.1371 3.70062 81.141 3.59906 81.141 3.47406C81.141 3.34906 81.141 3.21625 81.141 3.07562C81.141 2.90375 81.141 2.72406 81.141 2.53656C81.141 2.34906 81.1449 2.17328 81.1527 2.00922C81.1605 1.84515 81.1683 1.69672 81.1761 1.5639C81.184 1.43109 81.1996 1.33344 81.223 1.27094V1.28265C81.2543 1.16547 81.2972 1.07953 81.3519 1.02484C81.4066 0.970154 81.5004 0.94281 81.6332 0.94281C81.9613 0.94281 82.2152 1.04047 82.3949 1.23578C82.5746 1.43109 82.6644 1.69281 82.6644 2.02094C82.6644 2.54437 82.6605 3.06781 82.6527 3.59125C82.6527 4.10687 82.6488 4.6264 82.641 5.14984C82.6332 5.67328 82.6254 6.19672 82.6175 6.72015C82.6175 7.23578 82.6175 7.75531 82.6175 8.27875C82.6175 8.46625 82.6175 8.65765 82.6175 8.85297C82.6254 9.04047 82.6293 9.23187 82.6293 9.42719C82.6371 9.58344 82.641 9.74359 82.641 9.90765C82.641 10.0717 82.641 10.2436 82.641 10.4233L83.9066 8.40765V8.41937L84.0121 8.20844C84.0355 8.16937 84.0472 8.14203 84.0472 8.1264C84.055 8.11078 84.0629 8.09125 84.0707 8.06781C84.0863 8.03656 84.1136 7.98969 84.1527 7.92719C84.1996 7.86469 84.2777 7.77094 84.3871 7.64594C84.4261 7.60687 84.473 7.57172 84.5277 7.54047C84.5824 7.50922 84.6527 7.49359 84.7386 7.49359C84.8246 7.49359 84.9105 7.52094 84.9965 7.57562C85.0902 7.6225 85.1722 7.685 85.2425 7.76312C85.3129 7.84125 85.3715 7.92719 85.4183 8.02094C85.4652 8.11469 85.4886 8.20062 85.4886 8.27875C85.4886 8.34125 85.4535 8.45062 85.3832 8.60687C85.3129 8.75531 85.2191 8.9389 85.1019 9.15765C84.9925 9.3764 84.8675 9.61469 84.7269 9.8725C84.5863 10.1225 84.4379 10.3764 84.2816 10.6342C84.1332 10.892 83.9886 11.142 83.848 11.3842C83.7074 11.6264 83.5824 11.8412 83.473 12.0287L83.1683 12.5209C83.348 12.8334 83.555 13.1811 83.7894 13.5639C84.0316 13.9389 84.2855 14.3178 84.5511 14.7006C84.8168 15.0834 85.0863 15.4506 85.3597 15.8022C85.641 16.1537 85.9144 16.4623 86.18 16.728L86.2972 16.8217C86.391 16.892 86.4886 16.978 86.5902 17.0795C86.6918 17.1733 86.7425 17.2748 86.7425 17.3842ZM99.3988 8.09125C99.3988 8.44281 99.309 8.69281 99.1293 8.84125C98.9496 8.98187 98.6957 9.08344 98.3675 9.14594C98.4379 10.3491 98.4808 11.5444 98.4965 12.7319C98.5199 13.9194 98.5316 15.1147 98.5316 16.3178C98.5316 16.5053 98.4925 16.6498 98.4144 16.7514C98.3363 16.853 98.1957 16.9037 97.9925 16.9037C97.8207 16.9037 97.6488 16.8842 97.4769 16.8452C97.3129 16.8061 97.1644 16.7475 97.0316 16.6694C96.8988 16.5834 96.7894 16.4741 96.7035 16.3412C96.6254 16.2006 96.5863 16.0287 96.5863 15.8256V12.1694C96.5863 11.7084 96.5863 11.2475 96.5863 10.7866C96.5863 10.3256 96.5785 9.86469 96.5629 9.40375C95.891 9.4975 95.2191 9.57953 94.5472 9.64984C93.8754 9.71234 93.2035 9.75531 92.5316 9.77875C92.555 11.4428 92.6019 13.1069 92.6722 14.7709C92.6957 15.1147 92.7191 15.4506 92.7425 15.7787C92.7738 16.1069 92.7894 16.435 92.7894 16.7631C92.7894 16.9194 92.7465 17.0366 92.6605 17.1147C92.5746 17.1928 92.4535 17.2319 92.2972 17.2319C92.18 17.2319 92.055 17.2241 91.9222 17.2084C91.7894 17.185 91.6566 17.1498 91.5238 17.103C91.3988 17.0561 91.2816 16.9975 91.1722 16.9272C91.0629 16.8569 90.9769 16.7709 90.9144 16.6694C90.891 16.6303 90.8715 16.5131 90.8558 16.3178C90.8402 16.1225 90.8246 15.8764 90.809 15.5795C90.8011 15.2827 90.7933 14.9467 90.7855 14.5717C90.7777 14.1967 90.7738 13.81 90.7738 13.4116C90.7738 13.0131 90.7738 12.6225 90.7738 12.2397C90.7738 11.8491 90.7738 11.4897 90.7738 11.1616C90.7738 10.8334 90.7738 10.5483 90.7738 10.3061C90.7738 10.0639 90.7738 9.89594 90.7738 9.80219C90.6644 9.80219 90.5668 9.77875 90.4808 9.73187C90.3949 9.67719 90.3519 9.59125 90.3519 9.47406C90.3519 9.33344 90.391 9.20062 90.4691 9.07562C90.555 8.94281 90.6566 8.83344 90.7738 8.7475V1.66937C90.7738 1.51312 90.8011 1.38812 90.8558 1.29437C90.9183 1.20062 91.0316 1.15375 91.1957 1.15375C91.4613 1.15375 91.6722 1.19281 91.8285 1.27094C91.9925 1.34906 92.1136 1.45844 92.1918 1.59906C92.2777 1.73187 92.3324 1.89594 92.3558 2.09125C92.3871 2.27875 92.4066 2.48187 92.4144 2.70062C92.4379 3.65375 92.4535 4.60687 92.4613 5.56C92.4691 6.51312 92.4847 7.46625 92.5082 8.41937C93.18 8.35687 93.848 8.29437 94.5121 8.23187C95.1761 8.16156 95.8441 8.06 96.516 7.92719C96.4769 7.09906 96.4261 6.27875 96.3636 5.46625C96.309 4.65375 96.2269 3.83344 96.1175 3.00531C96.055 2.61469 95.9808 2.22797 95.8949 1.84515C95.809 1.45453 95.766 1.06 95.766 0.66156C95.766 0.520935 95.8168 0.431091 95.9183 0.392029C96.0277 0.352966 96.141 0.333435 96.2582 0.333435C96.4457 0.333435 96.6332 0.364685 96.8207 0.427185C97.016 0.489685 97.1722 0.59906 97.2894 0.75531C97.3597 0.856873 97.434 1.07172 97.5121 1.39984C97.5902 1.72015 97.6605 2.10297 97.723 2.54828C97.7933 2.99359 97.8597 3.47406 97.9222 3.98969C97.9847 4.50531 98.0394 5.0014 98.0863 5.47797C98.1332 5.94672 98.1722 6.3725 98.2035 6.75531C98.2425 7.13031 98.266 7.40375 98.2738 7.57562C98.3675 7.55219 98.4652 7.53265 98.5668 7.51703C98.6683 7.49359 98.766 7.48187 98.8597 7.48187C99.0472 7.48187 99.184 7.54047 99.2699 7.65765C99.3558 7.76703 99.3988 7.91156 99.3988 8.09125ZM104.508 15.0639C104.508 15.2983 104.442 15.5405 104.309 15.7905C104.184 16.0405 104.02 16.2709 103.817 16.4819C103.614 16.685 103.379 16.853 103.114 16.9858C102.856 17.1186 102.598 17.185 102.34 17.185C101.973 17.185 101.657 17.1147 101.391 16.9741C101.125 16.8256 100.895 16.6303 100.7 16.3881C100.504 16.1381 100.344 15.8569 100.219 15.5444C100.102 15.2319 100.008 14.9116 99.9379 14.5834C99.8675 14.2475 99.8168 13.9155 99.7855 13.5873C99.7621 13.2514 99.7504 12.9467 99.7504 12.6733C99.7504 12.4389 99.7621 12.1616 99.7855 11.8412C99.8168 11.5209 99.8636 11.1889 99.9261 10.8452C99.9965 10.5014 100.09 10.1616 100.207 9.82562C100.325 9.48969 100.469 9.1889 100.641 8.92328C100.821 8.65765 101.032 8.44281 101.274 8.27875C101.524 8.11469 101.809 8.03265 102.129 8.03265C102.379 8.03265 102.602 8.08344 102.797 8.185C103 8.28656 103.168 8.42328 103.301 8.59515C103.442 8.75922 103.547 8.95062 103.618 9.16937C103.696 9.38812 103.735 9.61469 103.735 9.84906C103.735 10.1537 103.664 10.4858 103.524 10.8452C103.383 11.2045 103.2 11.5522 102.973 11.8881C102.754 12.2241 102.504 12.5287 102.223 12.8022C101.95 13.0678 101.676 13.2709 101.403 13.4116C101.418 13.5522 101.45 13.7592 101.496 14.0327C101.543 14.2983 101.606 14.5639 101.684 14.8295C101.77 15.0952 101.868 15.3256 101.977 15.5209C102.094 15.7162 102.231 15.8139 102.387 15.8139C102.465 15.8139 102.532 15.7905 102.586 15.7436C102.649 15.6967 102.703 15.6342 102.75 15.5561C102.797 15.478 102.836 15.392 102.868 15.2983C102.907 15.2045 102.942 15.1147 102.973 15.0287L103.043 14.8647C103.059 14.8412 103.067 14.8256 103.067 14.8178C103.075 14.81 103.082 14.7983 103.09 14.7827C103.145 14.6811 103.196 14.5873 103.243 14.5014C103.297 14.4155 103.371 14.3412 103.465 14.2787H103.453C103.485 14.2475 103.516 14.2319 103.547 14.2319C103.586 14.2241 103.621 14.2202 103.653 14.2202C103.739 14.2202 103.832 14.2475 103.934 14.3022C104.036 14.3569 104.129 14.4272 104.215 14.5131C104.301 14.5912 104.371 14.6811 104.426 14.7827C104.481 14.8764 104.508 14.9702 104.508 15.0639ZM102.188 9.89594C102.188 9.81781 102.184 9.73578 102.176 9.64984C102.168 9.5639 102.149 9.48969 102.118 9.42719C102.008 9.56 101.911 9.72015 101.825 9.90765C101.746 10.0873 101.68 10.2787 101.625 10.4819C101.571 10.6772 101.524 10.8764 101.485 11.0795C101.453 11.2827 101.43 11.4702 101.414 11.642C101.618 11.3998 101.797 11.1264 101.953 10.8217C102.11 10.5092 102.188 10.2006 102.188 9.89594ZM106.149 17.3959C106.032 17.3959 105.903 17.3803 105.762 17.3491C105.629 17.3178 105.5 17.267 105.375 17.1967C105.258 17.1264 105.157 17.0405 105.071 16.9389C104.993 16.8295 104.953 16.7006 104.953 16.5522C104.953 16.3334 104.961 16.1186 104.977 15.9077C105 15.6889 105.024 15.4741 105.047 15.2631V15.2748L105.118 14.4897C105.141 14.2084 105.161 13.8998 105.176 13.5639C105.192 13.228 105.203 12.8881 105.211 12.5444C105.227 12.1928 105.239 11.8491 105.246 11.5131C105.254 11.1772 105.258 10.8686 105.258 10.5873C105.258 10.4233 105.254 10.2592 105.246 10.0952C105.246 9.92328 105.246 9.7514 105.246 9.57953C105.239 9.43109 105.235 9.26703 105.235 9.08734C105.235 8.89984 105.235 8.72797 105.235 8.57172C105.235 8.40765 105.254 8.27484 105.293 8.17328C105.34 8.0639 105.465 8.00922 105.668 8.00922C105.848 8.00922 106.036 8.05609 106.231 8.14984C106.434 8.24359 106.575 8.3764 106.653 8.54828H106.641C106.68 8.63422 106.707 8.77484 106.723 8.97015C106.746 9.15765 106.762 9.32562 106.77 9.47406C106.903 9.27094 107.051 9.05609 107.215 8.82953C107.387 8.60297 107.571 8.39594 107.766 8.20844C107.961 8.01312 108.168 7.85297 108.387 7.72797C108.606 7.60297 108.84 7.54047 109.09 7.54047C109.418 7.54047 109.668 7.6225 109.84 7.78656C110.012 7.95062 110.137 8.15765 110.215 8.40765C110.293 8.64984 110.336 8.91156 110.344 9.19281C110.352 9.46625 110.356 9.71625 110.356 9.94281V10.0366C110.356 10.1303 110.352 10.2241 110.344 10.3178C110.344 10.4037 110.328 10.4858 110.297 10.5639C110.274 10.6342 110.227 10.6928 110.157 10.7397C110.094 10.7866 110.004 10.81 109.887 10.81C109.762 10.81 109.629 10.7944 109.489 10.7631C109.348 10.7241 109.215 10.6694 109.09 10.5991C108.973 10.5287 108.871 10.4428 108.786 10.3412C108.7 10.2319 108.653 10.1069 108.645 9.96625C108.645 9.90375 108.645 9.84125 108.645 9.77875C108.645 9.71625 108.649 9.65375 108.657 9.59125C108.657 9.55219 108.657 9.50531 108.657 9.45062C108.664 9.38812 108.668 9.32953 108.668 9.27484C108.418 9.52484 108.196 9.83344 108 10.2006C107.813 10.5678 107.641 10.9584 107.485 11.3725C107.336 11.7866 107.207 12.2045 107.098 12.6264C106.989 13.0405 106.895 13.4155 106.817 13.7514V13.7866C106.793 14.0287 106.778 14.267 106.77 14.5014C106.762 14.7358 106.754 14.978 106.746 15.228C106.739 15.5092 106.727 15.7944 106.711 16.0834C106.703 16.3725 106.684 16.6537 106.653 16.9272C106.637 17.0756 106.59 17.1889 106.512 17.267C106.442 17.353 106.321 17.3959 106.149 17.3959ZM115.383 15.0639C115.383 15.2983 115.317 15.5405 115.184 15.7905C115.059 16.0405 114.895 16.2709 114.692 16.4819C114.489 16.685 114.254 16.853 113.989 16.9858C113.731 17.1186 113.473 17.185 113.215 17.185C112.848 17.185 112.532 17.1147 112.266 16.9741C112 16.8256 111.77 16.6303 111.575 16.3881C111.379 16.1381 111.219 15.8569 111.094 15.5444C110.977 15.2319 110.883 14.9116 110.813 14.5834C110.743 14.2475 110.692 13.9155 110.661 13.5873C110.637 13.2514 110.625 12.9467 110.625 12.6733C110.625 12.4389 110.637 12.1616 110.661 11.8412C110.692 11.5209 110.739 11.1889 110.801 10.8452C110.871 10.5014 110.965 10.1616 111.082 9.82562C111.2 9.48969 111.344 9.1889 111.516 8.92328C111.696 8.65765 111.907 8.44281 112.149 8.27875C112.399 8.11469 112.684 8.03265 113.004 8.03265C113.254 8.03265 113.477 8.08344 113.672 8.185C113.875 8.28656 114.043 8.42328 114.176 8.59515C114.317 8.75922 114.422 8.95062 114.493 9.16937C114.571 9.38812 114.61 9.61469 114.61 9.84906C114.61 10.1537 114.539 10.4858 114.399 10.8452C114.258 11.2045 114.075 11.5522 113.848 11.8881C113.629 12.2241 113.379 12.5287 113.098 12.8022C112.825 13.0678 112.551 13.2709 112.278 13.4116C112.293 13.5522 112.325 13.7592 112.371 14.0327C112.418 14.2983 112.481 14.5639 112.559 14.8295C112.645 15.0952 112.743 15.3256 112.852 15.5209C112.969 15.7162 113.106 15.8139 113.262 15.8139C113.34 15.8139 113.407 15.7905 113.461 15.7436C113.524 15.6967 113.578 15.6342 113.625 15.5561C113.672 15.478 113.711 15.392 113.743 15.2983C113.782 15.2045 113.817 15.1147 113.848 15.0287L113.918 14.8647C113.934 14.8412 113.942 14.8256 113.942 14.8178C113.95 14.81 113.957 14.7983 113.965 14.7827C114.02 14.6811 114.071 14.5873 114.118 14.5014C114.172 14.4155 114.246 14.3412 114.34 14.2787H114.328C114.36 14.2475 114.391 14.2319 114.422 14.2319C114.461 14.2241 114.496 14.2202 114.528 14.2202C114.614 14.2202 114.707 14.2475 114.809 14.3022C114.911 14.3569 115.004 14.4272 115.09 14.5131C115.176 14.5912 115.246 14.6811 115.301 14.7827C115.356 14.8764 115.383 14.9702 115.383 15.0639ZM113.063 9.89594C113.063 9.81781 113.059 9.73578 113.051 9.64984C113.043 9.5639 113.024 9.48969 112.993 9.42719C112.883 9.56 112.786 9.72015 112.7 9.90765C112.621 10.0873 112.555 10.2787 112.5 10.4819C112.446 10.6772 112.399 10.8764 112.36 11.0795C112.328 11.2827 112.305 11.4702 112.289 11.642C112.493 11.3998 112.672 11.1264 112.828 10.8217C112.985 10.5092 113.063 10.2006 113.063 9.89594Z" fill="#DF7000"/>
</g>
<defs>
<filter id="filter0_d_0_1" x="4.55026" y="20.2108" width="86.6422" height="118.428" filterUnits="userSpaceOnUse" color-interpolation-filters="sRGB">
<feFlood flood-opacity="0" result="BackgroundImageFix"/>
<feColorMatrix in="SourceAlpha" type="matrix" values="0 0 0 0 0 0 0 0 0 0 0 0 0 0 0 0 0 0 127 0" result="hardAlpha"/>
<feOffset dy="4"/>
<feGaussianBlur stdDeviation="2"/>
<feComposite in2="hardAlpha" operator="out"/>
<feColorMatrix type="matrix" values="0 0 0 0 0 0 0 0 0 0 0 0 0 0 0 0 0 0 0.25 0"/>
<feBlend mode="normal" in2="BackgroundImageFix" result="effect1_dropShadow_0_1"/>
<feBlend mode="normal" in="SourceGraphic" in2="effect1_dropShadow_0_1" result="shape"/>
</filter>
<filter id="filter1_d_0_1" x="0" y="116.212" width="19.9592" height="29.0441" filterUnits="userSpaceOnUse" color-interpolation-filters="sRGB">
<feFlood flood-opacity="0" result="BackgroundImageFix"/>
<feColorMatrix in="SourceAlpha" type="matrix" values="0 0 0 0 0 0 0 0 0 0 0 0 0 0 0 0 0 0 127 0" result="hardAlpha"/>
<feOffset dy="4"/>
<feGaussianBlur stdDeviation="2"/>
<feComposite in2="hardAlpha" operator="out"/>
<feColorMatrix type="matrix" values="0 0 0 0 0 0 0 0 0 0 0 0 0 0 0 0 0 0 0.25 0"/>
<feBlend mode="normal" in2="BackgroundImageFix" result="effect1_dropShadow_0_1"/>
<feBlend mode="normal" in="SourceGraphic" in2="effect1_dropShadow_0_1" result="shape"/>
</filter>
<filter id="filter2_dg_0_1" x="56.1761" y="-2.44379e-06" width="63.207" height="26.1108" filterUnits="userSpaceOnUse" color-interpolation-filters="sRGB">
<feFlood flood-opacity="0" result="BackgroundImageFix"/>
<feColorMatrix in="SourceAlpha" type="matrix" values="0 0 0 0 0 0 0 0 0 0 0 0 0 0 0 0 0 0 127 0" result="hardAlpha"/>
<feOffset dy="4"/>
<feGaussianBlur stdDeviation="2"/>
<feComposite in2="hardAlpha" operator="out"/>
<feColorMatrix type="matrix" values="0 0 0 0 0 0 0 0 0 0 0 0 0 0 0 0 0 0 0.25 0"/>
<feBlend mode="normal" in2="BackgroundImageFix" result="effect1_dropShadow_0_1"/>
<feBlend mode="normal" in="SourceGraphic" in2="effect1_dropShadow_0_1" result="shape"/>
<feTurbulence type="fractalNoise" baseFrequency="9.0909090042114258 9.0909090042114258" numOctaves="3" seed="330" />
<feDisplacementMap in="shape" scale="0.62000000476837158" xChannelSelector="R" yChannelSelector="G" result="displacedImage" width="100%" height="100%" />
<feMerge result="effect2_texture_0_1">
<feMergeNode in="displacedImage"/>
</feMerge>
</filter>
</defs>
</svg>
