<svg width="82" height="98" viewBox="0 0 82 98" fill="none" xmlns="http://www.w3.org/2000/svg">
<path d="M31.0335 15.5312C31.0335 15.6484 31.0139 15.7656 30.9749 15.8828C30.9436 15.9922 30.9085 16.1016 30.8694 16.2109C30.6975 16.6562 30.4866 17.0703 30.2366 17.4531C29.9866 17.8281 29.6975 18.1523 29.3694 18.4258C29.0413 18.6992 28.6702 18.9141 28.2561 19.0703C27.8421 19.2266 27.385 19.3047 26.885 19.3047C26.221 19.3047 25.6507 19.1641 25.1741 18.8828C24.6975 18.6016 24.2913 18.2383 23.9554 17.793C23.6194 17.3398 23.3421 16.8359 23.1233 16.2812C22.9124 15.7266 22.7444 15.1719 22.6194 14.6172C22.4319 13.8125 22.2874 13.0078 22.1858 12.2031C22.0843 11.3906 22.0335 10.5781 22.0335 9.76562C22.0335 9.28906 22.053 8.79688 22.0921 8.28906C22.1389 7.78125 22.2171 7.28125 22.3264 6.78906C22.4358 6.28906 22.5843 5.80859 22.7718 5.34766C22.9593 4.87891 23.1936 4.44922 23.4749 4.05859C23.7561 3.66016 24.0882 3.30859 24.471 3.00391C24.8616 2.69922 25.3147 2.46094 25.8304 2.28906C26.0179 2.21875 26.2132 2.17188 26.4163 2.14844C26.6194 2.11719 26.8225 2.10156 27.0257 2.10156C27.4319 2.10156 27.8186 2.16797 28.1858 2.30078C28.553 2.43359 28.8733 2.62109 29.1468 2.86328C29.428 3.10547 29.6468 3.39844 29.803 3.74219C29.9671 4.08594 30.0491 4.46875 30.0491 4.89062C30.0491 5.03125 30.0179 5.13672 29.9554 5.20703C29.8929 5.27734 29.7835 5.3125 29.6272 5.3125C29.3382 5.3125 29.1116 5.26562 28.9475 5.17188C28.7913 5.07812 28.6624 4.96094 28.5608 4.82031C28.4593 4.67969 28.3733 4.52734 28.303 4.36328C28.2405 4.19922 28.1624 4.04688 28.0686 3.90625C27.9749 3.76562 27.8499 3.64844 27.6936 3.55469C27.5374 3.46094 27.3225 3.41406 27.0491 3.41406C26.7757 3.41406 26.5179 3.46875 26.2757 3.57812C26.0413 3.67969 25.8225 3.81641 25.6194 3.98828C25.4241 4.16016 25.2444 4.35547 25.0804 4.57422C24.9241 4.78516 24.7835 5 24.6585 5.21875C24.3304 5.82812 24.0999 6.48047 23.9671 7.17578C23.8343 7.86328 23.7679 8.55469 23.7679 9.25C23.7679 9.48438 23.7757 9.78906 23.7913 10.1641C23.8147 10.5312 23.846 10.9375 23.885 11.3828C23.9319 11.8281 23.9944 12.3008 24.0725 12.8008C24.1507 13.293 24.2444 13.7773 24.3538 14.2539C24.471 14.7305 24.6077 15.1875 24.7639 15.625C24.928 16.0625 25.1116 16.4453 25.3147 16.7734C25.5257 17.1016 25.76 17.3633 26.0179 17.5586C26.2835 17.7539 26.5804 17.8516 26.9085 17.8516C27.2444 17.8516 27.5413 17.7656 27.7991 17.5938C28.0569 17.4141 28.2757 17.1914 28.4554 16.9258C28.6429 16.6523 28.7952 16.3594 28.9124 16.0469C29.0374 15.7266 29.135 15.4297 29.2054 15.1562C29.2288 15.0781 29.2483 15.0078 29.2639 14.9453C29.2874 14.8828 29.3147 14.8281 29.346 14.7812C29.385 14.7344 29.4319 14.6992 29.4866 14.6758C29.5413 14.6523 29.6194 14.6406 29.721 14.6406C29.8304 14.6406 29.9593 14.6641 30.1077 14.7109C30.2639 14.75 30.4085 14.8086 30.5413 14.8867C30.6819 14.9648 30.7991 15.0586 30.8929 15.168C30.9866 15.2773 31.0335 15.3984 31.0335 15.5312ZM34.385 19.3398C34.385 19.4492 34.3577 19.5391 34.303 19.6094C34.2483 19.6797 34.178 19.7344 34.0921 19.7734C34.0139 19.8203 33.9241 19.8516 33.8225 19.8672C33.7288 19.8906 33.6429 19.9023 33.5647 19.9023C33.2913 19.9023 33.053 19.8242 32.8499 19.668C32.6468 19.5117 32.471 19.3086 32.3225 19.0586C32.1741 18.8164 32.053 18.5391 31.9593 18.2266C31.8655 17.9062 31.7874 17.5898 31.7249 17.2773C31.6624 16.957 31.6155 16.6523 31.5843 16.3633C31.553 16.0664 31.5296 15.8125 31.5139 15.6016C31.4436 14.875 31.3929 14.1367 31.3616 13.3867C31.3382 12.6367 31.3264 11.8945 31.3264 11.1602C31.3264 9.15234 31.3968 7.16406 31.5374 5.19531C31.5374 5.16406 31.5374 5.12891 31.5374 5.08984C31.5452 5.05078 31.5491 5.01172 31.5491 4.97266C31.5569 4.80859 31.5647 4.62109 31.5725 4.41016C31.5804 4.19141 31.5921 3.97656 31.6077 3.76562C31.6233 3.55469 31.6389 3.36328 31.6546 3.19141C31.678 3.01172 31.7054 2.88672 31.7366 2.81641V2.82812C31.7679 2.71875 31.8108 2.63672 31.8655 2.58203C31.9202 2.52734 32.0139 2.5 32.1468 2.5C32.428 2.5 32.6663 2.59375 32.8616 2.78125C33.0569 2.96875 33.1546 3.20312 33.1546 3.48438C33.1546 3.54687 33.1507 3.60938 33.1429 3.67188C33.1429 3.72656 33.1389 3.78125 33.1311 3.83594C33.1233 3.89063 33.1155 3.94531 33.1077 4C33.1077 4.04688 33.1077 4.08984 33.1077 4.12891C33.0843 4.43359 33.0647 4.73828 33.0491 5.04297C33.0413 5.33984 33.0296 5.64062 33.0139 5.94531C32.9749 6.61719 32.9436 7.28906 32.9202 7.96094C32.9046 8.625 32.8968 9.29688 32.8968 9.97656C32.8968 10.2656 32.9007 10.6445 32.9085 11.1133C32.9163 11.582 32.9319 12.0938 32.9554 12.6484C32.9788 13.1953 33.01 13.7617 33.0491 14.3477C33.096 14.9336 33.1546 15.4922 33.2249 16.0234C33.2952 16.5547 33.3772 17.0352 33.471 17.4648C33.5725 17.8945 33.6897 18.2266 33.8225 18.4609C33.8929 18.4922 33.9593 18.543 34.0218 18.6133C34.0921 18.6758 34.1507 18.75 34.1975 18.8359C34.2522 18.9141 34.2952 18.9961 34.3264 19.082C34.3655 19.1758 34.385 19.2617 34.385 19.3398ZM36.2014 9.14453C36.2014 9.27734 36.1702 9.375 36.1077 9.4375C36.053 9.49219 35.9475 9.51953 35.7913 9.51953C35.721 9.51953 35.6116 9.51172 35.4632 9.49609C35.3147 9.47266 35.1624 9.44141 35.0061 9.40234C34.8577 9.36328 34.7249 9.30859 34.6077 9.23828C34.4983 9.16797 34.4436 9.08203 34.4436 8.98047C34.4436 8.94922 34.4554 8.86328 34.4788 8.72266C34.5022 8.57422 34.5296 8.41797 34.5608 8.25391C34.5999 8.08984 34.6311 7.94141 34.6546 7.80859C34.6858 7.67578 34.7093 7.60156 34.7249 7.58594V7.59766C34.7639 7.53516 34.8108 7.49609 34.8655 7.48047C34.9202 7.46484 34.9749 7.45703 35.0296 7.45703C35.0999 7.45703 35.1897 7.46875 35.2991 7.49219C35.4163 7.50781 35.5296 7.53516 35.6389 7.57422C35.7561 7.60547 35.8616 7.64844 35.9554 7.70312C36.0491 7.75781 36.1077 7.81641 36.1311 7.87891C36.1546 7.94141 36.1663 8.02734 36.1663 8.13672C36.1741 8.23828 36.1741 8.33203 36.1663 8.41797C36.1663 8.44922 36.1624 8.48828 36.1546 8.53516C36.1546 8.57422 36.1546 8.60547 36.1546 8.62891C36.1546 8.66797 36.1546 8.70703 36.1546 8.74609C36.1624 8.78516 36.1702 8.82422 36.178 8.86328C36.1858 8.90234 36.1897 8.94531 36.1897 8.99219C36.1975 9.03906 36.2014 9.08984 36.2014 9.14453ZM36.635 18.4844C36.635 18.6641 36.5921 18.793 36.5061 18.8711C36.428 18.9414 36.2991 18.9766 36.1194 18.9766C36.0257 18.9766 35.9202 18.9648 35.803 18.9414C35.6936 18.918 35.5843 18.8867 35.4749 18.8477C35.3655 18.8008 35.2639 18.7461 35.1702 18.6836C35.0764 18.6211 35.0061 18.5508 34.9593 18.4727C34.928 18.4258 34.9007 18.2812 34.8772 18.0391C34.8538 17.7969 34.8343 17.4961 34.8186 17.1367C34.8108 16.7773 34.7991 16.375 34.7835 15.9297C34.7757 15.4844 34.7679 15.0352 34.76 14.582C34.76 14.1289 34.76 13.6875 34.76 13.2578C34.76 12.8281 34.76 12.4531 34.76 12.1328V11.2305C34.76 11.1523 34.76 11.0742 34.76 10.9961C34.7679 10.918 34.7835 10.8516 34.8069 10.7969C34.8382 10.7344 34.8811 10.6836 34.9358 10.6445C34.9983 10.6055 35.0843 10.5859 35.1936 10.5859C35.5374 10.5859 35.7874 10.6836 35.9436 10.8789C36.1077 11.0664 36.2093 11.3203 36.2483 11.6406C36.2874 12.1172 36.3147 12.5938 36.3304 13.0703C36.3538 13.5391 36.3733 14.0156 36.3889 14.5C36.4046 14.9375 36.4163 15.3711 36.4241 15.8008C36.4397 16.2227 36.4671 16.6445 36.5061 17.0664C36.5139 17.1523 36.5218 17.2344 36.5296 17.3125C36.5374 17.3906 36.5491 17.4688 36.5647 17.5469C36.5804 17.7031 36.596 17.8594 36.6116 18.0156C36.6272 18.1641 36.635 18.3203 36.635 18.4844ZM42.3186 16.375C42.3186 16.5391 42.2913 16.707 42.2366 16.8789C42.1819 17.0508 42.1194 17.2148 42.0491 17.3711C41.9554 17.5977 41.8421 17.8203 41.7093 18.0391C41.5764 18.25 41.4241 18.4414 41.2522 18.6133C41.0804 18.7773 40.885 18.9102 40.6663 19.0117C40.4475 19.1133 40.2014 19.1641 39.928 19.1641C39.4436 19.1641 39.0413 19.043 38.721 18.8008C38.4007 18.5586 38.1468 18.2539 37.9593 17.8867C37.7718 17.5195 37.6389 17.1172 37.5608 16.6797C37.4905 16.2422 37.4554 15.8281 37.4554 15.4375C37.4554 15.1484 37.4671 14.8086 37.4905 14.418C37.5139 14.0195 37.5569 13.6094 37.6194 13.1875C37.6897 12.7656 37.7874 12.3477 37.9124 11.9336C38.0452 11.5195 38.2132 11.1523 38.4163 10.832C38.6194 10.5039 38.8655 10.2383 39.1546 10.0352C39.4514 9.83203 39.803 9.73047 40.2093 9.73047C40.2952 9.73047 40.4202 9.74609 40.5843 9.77734C40.7483 9.80859 40.9085 9.85547 41.0647 9.91797C41.2288 9.97266 41.3694 10.0508 41.4866 10.1523C41.6116 10.2461 41.6741 10.3555 41.6741 10.4805C41.6741 10.5977 41.6194 10.6875 41.51 10.75C41.4085 10.8125 41.2835 10.8594 41.135 10.8906C40.9944 10.9141 40.846 10.9297 40.6897 10.9375C40.5413 10.9375 40.4202 10.9375 40.3264 10.9375H40.1155C39.8968 11.1328 39.7171 11.4219 39.5764 11.8047C39.4358 12.1797 39.3264 12.582 39.2483 13.0117C39.1702 13.4414 39.1155 13.8672 39.0843 14.2891C39.053 14.7031 39.0374 15.043 39.0374 15.3086C39.0374 15.6836 39.0647 16.0547 39.1194 16.4219C39.1819 16.7812 39.303 17.1211 39.4827 17.4414C39.5218 17.5117 39.5764 17.5938 39.6468 17.6875C39.7249 17.7734 39.8108 17.8164 39.9046 17.8164C39.9749 17.8164 40.0452 17.7578 40.1155 17.6406C40.1936 17.5234 40.2639 17.3867 40.3264 17.2305C40.3889 17.0742 40.4397 16.9219 40.4788 16.7734C40.5179 16.625 40.5452 16.5156 40.5608 16.4453C40.5686 16.4141 40.5725 16.3789 40.5725 16.3398C40.5725 16.3008 40.5725 16.2617 40.5725 16.2227C40.5725 16.1523 40.5725 16.0859 40.5725 16.0234C40.5804 15.9531 40.5921 15.8984 40.6077 15.8594C40.6624 15.7266 40.7327 15.6367 40.8186 15.5898C40.9124 15.543 41.0257 15.5195 41.1585 15.5195C41.2757 15.5195 41.4007 15.5352 41.5335 15.5664C41.6663 15.5977 41.7913 15.6484 41.9085 15.7188C42.0257 15.7891 42.1233 15.8789 42.2014 15.9883C42.2796 16.0977 42.3186 16.2266 42.3186 16.375ZM48.5999 19.1758C48.5999 19.2617 48.553 19.3398 48.4593 19.4102C48.3655 19.4805 48.2561 19.5391 48.1311 19.5859C48.0139 19.6328 47.8929 19.668 47.7679 19.6914C47.6429 19.7227 47.5452 19.7383 47.4749 19.7383C47.3421 19.7383 47.221 19.7109 47.1116 19.6562C47.0022 19.6094 46.9007 19.5469 46.8069 19.4688C46.7132 19.3906 46.6233 19.3047 46.5374 19.2109C46.4593 19.1172 46.385 19.0234 46.3147 18.9297C46.0413 18.5938 45.76 18.2188 45.471 17.8047C45.1819 17.3906 44.9241 16.9961 44.6975 16.6211C44.6975 16.6523 44.7014 16.6914 44.7093 16.7383C44.7171 16.7852 44.721 16.8242 44.721 16.8555C44.7366 17.0195 44.7483 17.1836 44.7561 17.3477C44.7718 17.5039 44.7913 17.6641 44.8147 17.8281C44.8225 17.9219 44.8304 18.0156 44.8382 18.1094C44.8538 18.1953 44.8694 18.2891 44.885 18.3906C44.9007 18.5156 44.9163 18.6406 44.9319 18.7656C44.9475 18.8906 44.9554 19.0195 44.9554 19.1523C44.9554 19.3164 44.9085 19.4258 44.8147 19.4805C44.721 19.543 44.596 19.5742 44.4397 19.5742C44.3304 19.5742 44.2132 19.5664 44.0882 19.5508C43.9632 19.5352 43.8421 19.5039 43.7249 19.457C43.6077 19.4102 43.5022 19.3477 43.4085 19.2695C43.3147 19.1914 43.2444 19.0898 43.1975 18.9648C43.1741 18.8711 43.1507 18.6953 43.1272 18.4375C43.1038 18.1797 43.0843 17.8945 43.0686 17.582C43.053 17.2617 43.0374 16.9414 43.0218 16.6211C43.0139 16.3008 43.0061 16.0352 42.9983 15.8242C42.9983 15.7773 42.9944 15.7383 42.9866 15.707C42.9866 15.6758 42.9866 15.6445 42.9866 15.6133C42.9241 15.5586 42.8694 15.4922 42.8225 15.4141C42.7757 15.3359 42.7522 15.2617 42.7522 15.1914C42.7522 15.0898 42.7718 15 42.8108 14.9219C42.8499 14.8438 42.8929 14.7695 42.9397 14.6992C42.8929 13.7383 42.8694 12.7812 42.8694 11.8281C42.8694 11.0391 42.8772 10.2578 42.8929 9.48438C42.9163 8.70312 42.9358 7.92188 42.9514 7.14062L42.9866 5.57031C42.9944 5.49219 42.9983 5.39063 42.9983 5.26562C42.9983 5.14062 42.9983 5.00781 42.9983 4.86719C42.9983 4.69531 42.9983 4.51562 42.9983 4.32812C42.9983 4.14062 43.0022 3.96484 43.01 3.80078C43.0179 3.63672 43.0257 3.48828 43.0335 3.35547C43.0413 3.22266 43.0569 3.125 43.0804 3.0625V3.07422C43.1116 2.95703 43.1546 2.87109 43.2093 2.81641C43.2639 2.76172 43.3577 2.73438 43.4905 2.73438C43.8186 2.73438 44.0725 2.83203 44.2522 3.02734C44.4319 3.22266 44.5218 3.48438 44.5218 3.8125C44.5218 4.33594 44.5179 4.85937 44.51 5.38281C44.51 5.89844 44.5061 6.41797 44.4983 6.94141C44.4905 7.46484 44.4827 7.98828 44.4749 8.51172C44.4749 9.02734 44.4749 9.54688 44.4749 10.0703C44.4749 10.2578 44.4749 10.4492 44.4749 10.6445C44.4827 10.832 44.4866 11.0234 44.4866 11.2188C44.4944 11.375 44.4983 11.5352 44.4983 11.6992C44.4983 11.8633 44.4983 12.0352 44.4983 12.2148L45.7639 10.1992V10.2109L45.8694 10C45.8929 9.96094 45.9046 9.93359 45.9046 9.91797C45.9124 9.90234 45.9202 9.88281 45.928 9.85938C45.9436 9.82812 45.971 9.78125 46.01 9.71875C46.0569 9.65625 46.135 9.5625 46.2444 9.4375C46.2835 9.39844 46.3304 9.36328 46.385 9.33203C46.4397 9.30078 46.51 9.28516 46.596 9.28516C46.6819 9.28516 46.7679 9.3125 46.8538 9.36719C46.9475 9.41406 47.0296 9.47656 47.0999 9.55469C47.1702 9.63281 47.2288 9.71875 47.2757 9.8125C47.3225 9.90625 47.346 9.99219 47.346 10.0703C47.346 10.1328 47.3108 10.2422 47.2405 10.3984C47.1702 10.5469 47.0764 10.7305 46.9593 10.9492C46.8499 11.168 46.7249 11.4062 46.5843 11.6641C46.4436 11.9141 46.2952 12.168 46.1389 12.4258C45.9905 12.6836 45.846 12.9336 45.7054 13.1758C45.5647 13.418 45.4397 13.6328 45.3304 13.8203L45.0257 14.3125C45.2054 14.625 45.4124 14.9727 45.6468 15.3555C45.8889 15.7305 46.1429 16.1094 46.4085 16.4922C46.6741 16.875 46.9436 17.2422 47.2171 17.5938C47.4983 17.9453 47.7718 18.2539 48.0374 18.5195L48.1546 18.6133C48.2483 18.6836 48.346 18.7695 48.4475 18.8711C48.5491 18.9648 48.5999 19.0664 48.5999 19.1758ZM61.2561 9.88281C61.2561 10.2344 61.1663 10.4844 60.9866 10.6328C60.8069 10.7734 60.553 10.875 60.2249 10.9375C60.2952 12.1406 60.3382 13.3359 60.3538 14.5234C60.3772 15.7109 60.3889 16.9062 60.3889 18.1094C60.3889 18.2969 60.3499 18.4414 60.2718 18.543C60.1936 18.6445 60.053 18.6953 59.8499 18.6953C59.678 18.6953 59.5061 18.6758 59.3343 18.6367C59.1702 18.5977 59.0218 18.5391 58.8889 18.4609C58.7561 18.375 58.6468 18.2656 58.5608 18.1328C58.4827 17.9922 58.4436 17.8203 58.4436 17.6172V13.9609C58.4436 13.5 58.4436 13.0391 58.4436 12.5781C58.4436 12.1172 58.4358 11.6562 58.4202 11.1953C57.7483 11.2891 57.0764 11.3711 56.4046 11.4414C55.7327 11.5039 55.0608 11.5469 54.3889 11.5703C54.4124 13.2344 54.4593 14.8984 54.5296 16.5625C54.553 16.9062 54.5764 17.2422 54.5999 17.5703C54.6311 17.8984 54.6468 18.2266 54.6468 18.5547C54.6468 18.7109 54.6038 18.8281 54.5179 18.9062C54.4319 18.9844 54.3108 19.0234 54.1546 19.0234C54.0374 19.0234 53.9124 19.0156 53.7796 19C53.6468 18.9766 53.5139 18.9414 53.3811 18.8945C53.2561 18.8477 53.1389 18.7891 53.0296 18.7188C52.9202 18.6484 52.8343 18.5625 52.7718 18.4609C52.7483 18.4219 52.7288 18.3047 52.7132 18.1094C52.6975 17.9141 52.6819 17.668 52.6663 17.3711C52.6585 17.0742 52.6507 16.7383 52.6429 16.3633C52.635 15.9883 52.6311 15.6016 52.6311 15.2031C52.6311 14.8047 52.6311 14.4141 52.6311 14.0312C52.6311 13.6406 52.6311 13.2812 52.6311 12.9531C52.6311 12.625 52.6311 12.3398 52.6311 12.0977C52.6311 11.8555 52.6311 11.6875 52.6311 11.5938C52.5218 11.5938 52.4241 11.5703 52.3382 11.5234C52.2522 11.4688 52.2093 11.3828 52.2093 11.2656C52.2093 11.125 52.2483 10.9922 52.3264 10.8672C52.4124 10.7344 52.5139 10.625 52.6311 10.5391V3.46094C52.6311 3.30469 52.6585 3.17969 52.7132 3.08594C52.7757 2.99219 52.8889 2.94531 53.053 2.94531C53.3186 2.94531 53.5296 2.98437 53.6858 3.0625C53.8499 3.14063 53.971 3.25 54.0491 3.39062C54.135 3.52344 54.1897 3.6875 54.2132 3.88281C54.2444 4.07031 54.2639 4.27344 54.2718 4.49219C54.2952 5.44531 54.3108 6.39844 54.3186 7.35156C54.3264 8.30469 54.3421 9.25781 54.3655 10.2109C55.0374 10.1484 55.7054 10.0859 56.3694 10.0234C57.0335 9.95312 57.7014 9.85156 58.3733 9.71875C58.3343 8.89062 58.2835 8.07031 58.221 7.25781C58.1663 6.44531 58.0843 5.625 57.9749 4.79688C57.9124 4.40625 57.8382 4.01953 57.7522 3.63672C57.6663 3.24609 57.6233 2.85156 57.6233 2.45312C57.6233 2.3125 57.6741 2.22266 57.7757 2.18359C57.885 2.14453 57.9983 2.125 58.1155 2.125C58.303 2.125 58.4905 2.15625 58.678 2.21875C58.8733 2.28125 59.0296 2.39063 59.1468 2.54688C59.2171 2.64844 59.2913 2.86328 59.3694 3.19141C59.4475 3.51172 59.5179 3.89453 59.5804 4.33984C59.6507 4.78516 59.7171 5.26562 59.7796 5.78125C59.8421 6.29688 59.8968 6.79297 59.9436 7.26953C59.9905 7.73828 60.0296 8.16406 60.0608 8.54688C60.0999 8.92188 60.1233 9.19531 60.1311 9.36719C60.2249 9.34375 60.3225 9.32422 60.4241 9.30859C60.5257 9.28516 60.6233 9.27344 60.7171 9.27344C60.9046 9.27344 61.0413 9.33203 61.1272 9.44922C61.2132 9.55859 61.2561 9.70312 61.2561 9.88281ZM66.3655 16.8555C66.3655 17.0898 66.2991 17.332 66.1663 17.582C66.0413 17.832 65.8772 18.0625 65.6741 18.2734C65.471 18.4766 65.2366 18.6445 64.971 18.7773C64.7132 18.9102 64.4554 18.9766 64.1975 18.9766C63.8304 18.9766 63.5139 18.9062 63.2483 18.7656C62.9827 18.6172 62.7522 18.4219 62.5569 18.1797C62.3616 17.9297 62.2014 17.6484 62.0764 17.3359C61.9593 17.0234 61.8655 16.7031 61.7952 16.375C61.7249 16.0391 61.6741 15.707 61.6429 15.3789C61.6194 15.043 61.6077 14.7383 61.6077 14.4648C61.6077 14.2305 61.6194 13.9531 61.6429 13.6328C61.6741 13.3125 61.721 12.9805 61.7835 12.6367C61.8538 12.293 61.9475 11.9531 62.0647 11.6172C62.1819 11.2812 62.3264 10.9805 62.4983 10.7148C62.678 10.4492 62.8889 10.2344 63.1311 10.0703C63.3811 9.90625 63.6663 9.82422 63.9866 9.82422C64.2366 9.82422 64.4593 9.875 64.6546 9.97656C64.8577 10.0781 65.0257 10.2148 65.1585 10.3867C65.2991 10.5508 65.4046 10.7422 65.4749 10.9609C65.553 11.1797 65.5921 11.4062 65.5921 11.6406C65.5921 11.9453 65.5218 12.2773 65.3811 12.6367C65.2405 12.9961 65.0569 13.3438 64.8304 13.6797C64.6116 14.0156 64.3616 14.3203 64.0804 14.5938C63.8069 14.8594 63.5335 15.0625 63.26 15.2031C63.2757 15.3438 63.3069 15.5508 63.3538 15.8242C63.4007 16.0898 63.4632 16.3555 63.5413 16.6211C63.6272 16.8867 63.7249 17.1172 63.8343 17.3125C63.9514 17.5078 64.0882 17.6055 64.2444 17.6055C64.3225 17.6055 64.3889 17.582 64.4436 17.5352C64.5061 17.4883 64.5608 17.4258 64.6077 17.3477C64.6546 17.2695 64.6936 17.1836 64.7249 17.0898C64.7639 16.9961 64.7991 16.9062 64.8304 16.8203L64.9007 16.6562C64.9163 16.6328 64.9241 16.6172 64.9241 16.6094C64.9319 16.6016 64.9397 16.5898 64.9475 16.5742C65.0022 16.4727 65.053 16.3789 65.0999 16.293C65.1546 16.207 65.2288 16.1328 65.3225 16.0703H65.3108C65.3421 16.0391 65.3733 16.0234 65.4046 16.0234C65.4436 16.0156 65.4788 16.0117 65.51 16.0117C65.596 16.0117 65.6897 16.0391 65.7913 16.0938C65.8929 16.1484 65.9866 16.2188 66.0725 16.3047C66.1585 16.3828 66.2288 16.4727 66.2835 16.5742C66.3382 16.668 66.3655 16.7617 66.3655 16.8555ZM64.0452 11.6875C64.0452 11.6094 64.0413 11.5273 64.0335 11.4414C64.0257 11.3555 64.0061 11.2812 63.9749 11.2188C63.8655 11.3516 63.7679 11.5117 63.6819 11.6992C63.6038 11.8789 63.5374 12.0703 63.4827 12.2734C63.428 12.4688 63.3811 12.668 63.3421 12.8711C63.3108 13.0742 63.2874 13.2617 63.2718 13.4336C63.4749 13.1914 63.6546 12.918 63.8108 12.6133C63.9671 12.3008 64.0452 11.9922 64.0452 11.6875ZM68.0061 19.1875C67.8889 19.1875 67.76 19.1719 67.6194 19.1406C67.4866 19.1094 67.3577 19.0586 67.2327 18.9883C67.1155 18.918 67.0139 18.832 66.928 18.7305C66.8499 18.6211 66.8108 18.4922 66.8108 18.3438C66.8108 18.125 66.8186 17.9102 66.8343 17.6992C66.8577 17.4805 66.8811 17.2656 66.9046 17.0547V17.0664L66.9749 16.2812C66.9983 16 67.0179 15.6914 67.0335 15.3555C67.0491 15.0195 67.0608 14.6797 67.0686 14.3359C67.0843 13.9844 67.096 13.6406 67.1038 13.3047C67.1116 12.9688 67.1155 12.6602 67.1155 12.3789C67.1155 12.2148 67.1116 12.0508 67.1038 11.8867C67.1038 11.7148 67.1038 11.543 67.1038 11.3711C67.096 11.2227 67.0921 11.0586 67.0921 10.8789C67.0921 10.6914 67.0921 10.5195 67.0921 10.3633C67.0921 10.1992 67.1116 10.0664 67.1507 9.96484C67.1975 9.85547 67.3225 9.80078 67.5257 9.80078C67.7054 9.80078 67.8929 9.84766 68.0882 9.94141C68.2913 10.0352 68.4319 10.168 68.51 10.3398H68.4983C68.5374 10.4258 68.5647 10.5664 68.5804 10.7617C68.6038 10.9492 68.6194 11.1172 68.6272 11.2656C68.76 11.0625 68.9085 10.8477 69.0725 10.6211C69.2444 10.3945 69.428 10.1875 69.6233 10C69.8186 9.80469 70.0257 9.64453 70.2444 9.51953C70.4632 9.39453 70.6975 9.33203 70.9475 9.33203C71.2757 9.33203 71.5257 9.41406 71.6975 9.57812C71.8694 9.74219 71.9944 9.94922 72.0725 10.1992C72.1507 10.4414 72.1936 10.7031 72.2014 10.9844C72.2093 11.2578 72.2132 11.5078 72.2132 11.7344V11.8281C72.2132 11.9219 72.2093 12.0156 72.2014 12.1094C72.2014 12.1953 72.1858 12.2773 72.1546 12.3555C72.1311 12.4258 72.0843 12.4844 72.0139 12.5312C71.9514 12.5781 71.8616 12.6016 71.7444 12.6016C71.6194 12.6016 71.4866 12.5859 71.346 12.5547C71.2054 12.5156 71.0725 12.4609 70.9475 12.3906C70.8304 12.3203 70.7288 12.2344 70.6429 12.1328C70.5569 12.0234 70.51 11.8984 70.5022 11.7578C70.5022 11.6953 70.5022 11.6328 70.5022 11.5703C70.5022 11.5078 70.5061 11.4453 70.5139 11.3828C70.5139 11.3438 70.5139 11.2969 70.5139 11.2422C70.5218 11.1797 70.5257 11.1211 70.5257 11.0664C70.2757 11.3164 70.053 11.625 69.8577 11.9922C69.6702 12.3594 69.4983 12.75 69.3421 13.1641C69.1936 13.5781 69.0647 13.9961 68.9554 14.418C68.846 14.832 68.7522 15.207 68.6741 15.543V15.5781C68.6507 15.8203 68.635 16.0586 68.6272 16.293C68.6194 16.5273 68.6116 16.7695 68.6038 17.0195C68.596 17.3008 68.5843 17.5859 68.5686 17.875C68.5608 18.1641 68.5413 18.4453 68.51 18.7188C68.4944 18.8672 68.4475 18.9805 68.3694 19.0586C68.2991 19.1445 68.178 19.1875 68.0061 19.1875ZM77.2405 16.8555C77.2405 17.0898 77.1741 17.332 77.0413 17.582C76.9163 17.832 76.7522 18.0625 76.5491 18.2734C76.346 18.4766 76.1116 18.6445 75.846 18.7773C75.5882 18.9102 75.3304 18.9766 75.0725 18.9766C74.7054 18.9766 74.3889 18.9062 74.1233 18.7656C73.8577 18.6172 73.6272 18.4219 73.4319 18.1797C73.2366 17.9297 73.0764 17.6484 72.9514 17.3359C72.8343 17.0234 72.7405 16.7031 72.6702 16.375C72.5999 16.0391 72.5491 15.707 72.5179 15.3789C72.4944 15.043 72.4827 14.7383 72.4827 14.4648C72.4827 14.2305 72.4944 13.9531 72.5179 13.6328C72.5491 13.3125 72.596 12.9805 72.6585 12.6367C72.7288 12.293 72.8225 11.9531 72.9397 11.6172C73.0569 11.2812 73.2014 10.9805 73.3733 10.7148C73.553 10.4492 73.7639 10.2344 74.0061 10.0703C74.2561 9.90625 74.5413 9.82422 74.8616 9.82422C75.1116 9.82422 75.3343 9.875 75.5296 9.97656C75.7327 10.0781 75.9007 10.2148 76.0335 10.3867C76.1741 10.5508 76.2796 10.7422 76.3499 10.9609C76.428 11.1797 76.4671 11.4062 76.4671 11.6406C76.4671 11.9453 76.3968 12.2773 76.2561 12.6367C76.1155 12.9961 75.9319 13.3438 75.7054 13.6797C75.4866 14.0156 75.2366 14.3203 74.9554 14.5938C74.6819 14.8594 74.4085 15.0625 74.135 15.2031C74.1507 15.3438 74.1819 15.5508 74.2288 15.8242C74.2757 16.0898 74.3382 16.3555 74.4163 16.6211C74.5022 16.8867 74.5999 17.1172 74.7093 17.3125C74.8264 17.5078 74.9632 17.6055 75.1194 17.6055C75.1975 17.6055 75.2639 17.582 75.3186 17.5352C75.3811 17.4883 75.4358 17.4258 75.4827 17.3477C75.5296 17.2695 75.5686 17.1836 75.5999 17.0898C75.6389 16.9961 75.6741 16.9062 75.7054 16.8203L75.7757 16.6562C75.7913 16.6328 75.7991 16.6172 75.7991 16.6094C75.8069 16.6016 75.8147 16.5898 75.8225 16.5742C75.8772 16.4727 75.928 16.3789 75.9749 16.293C76.0296 16.207 76.1038 16.1328 76.1975 16.0703H76.1858C76.2171 16.0391 76.2483 16.0234 76.2796 16.0234C76.3186 16.0156 76.3538 16.0117 76.385 16.0117C76.471 16.0117 76.5647 16.0391 76.6663 16.0938C76.7679 16.1484 76.8616 16.2188 76.9475 16.3047C77.0335 16.3828 77.1038 16.4727 77.1585 16.5742C77.2132 16.668 77.2405 16.7617 77.2405 16.8555ZM74.9202 11.6875C74.9202 11.6094 74.9163 11.5273 74.9085 11.4414C74.9007 11.3555 74.8811 11.2812 74.8499 11.2188C74.7405 11.3516 74.6429 11.5117 74.5569 11.6992C74.4788 11.8789 74.4124 12.0703 74.3577 12.2734C74.303 12.4688 74.2561 12.668 74.2171 12.8711C74.1858 13.0742 74.1624 13.2617 74.1468 13.4336C74.3499 13.1914 74.5296 12.918 74.6858 12.6133C74.8421 12.3008 74.9202 11.9922 74.9202 11.6875Z" fill="#DF7000"/>
<path d="M17.8956 52.1268C17.0203 53.2148 17.1696 54.5936 16.8525 56.0056C16.7456 56.4862 16.5801 56.9825 16.3017 57.4787C15.2141 59.4462 14.3608 59.4663 13.564 61.9529C12.778 64.4364 11.4008 66.7187 11.3204 67.9243C11.2426 69.1265 10.2842 68.9269 9.96297 70.5682C9.68547 72.0074 9.32594 72.889 8.75013 73.9534C8.66999 74.103 8.58647 74.254 8.49942 74.4083C7.75016 75.6885 6.32617 79.9249 6.43888 81.5872C6.50476 83.2265 5.57553 84.9294 5.26866 86.0184C5.17312 86.3541 5.07035 86.6167 4.97339 86.8154C4.93224 86.9 4.86485 86.9333 4.80355 86.9254C4.80351 86.9254 4.80347 86.9254 4.80343 86.9254C4.72712 86.9156 4.66032 86.8418 4.66545 86.7269C4.69046 86.1702 4.67525 85.3341 4.54667 84.3184C4.32367 82.4171 4.90191 82.3094 5.16526 79.8181C5.45347 77.398 5.37226 75.8094 6.45948 73.2447C6.49085 73.1716 6.52336 73.0973 6.55706 73.0217C7.76623 70.3471 6.59064 69.2431 8.73674 65.6147C10.9158 62.0198 9.63738 61.0928 11.0467 57.1604C11.43 56.1167 11.93 55.0285 12.4924 53.9624C14.0306 51.0078 16.1153 48.3042 17.0999 46.7283C18.189 44.9403 19.6833 42.6949 21.5323 40.538C21.923 40.0802 22.3282 39.6186 22.7488 39.1595C25.1105 36.5812 27.5852 32.8469 30.8721 30.423C31.5747 29.9038 32.3588 29.3566 33.1951 28.8314C36.1188 26.9922 39.4725 25.138 41.3101 24.3159C43.6521 23.2762 44.2057 23.0316 46.3531 21.8251C47.5914 21.1531 49.5447 20.4926 51.2723 20.7294C52.1285 20.885 51.893 21.1476 51.1457 21.3445C50.0501 21.6701 49.1025 21.872 48.6565 22.3872C47.7762 23.44 47.4726 23.8532 45.9477 24.1569C44.4102 24.4887 44.2299 25.6411 43.4205 25.9903C42.6196 26.3683 42.2993 25.8208 38.7622 28.7082C37.3777 29.8611 36.2485 30.8355 35.3128 31.6453C33.9623 32.8318 33.0731 33.7507 32.3849 34.4859C31.2417 35.6812 28.5052 37.9802 26.843 40.2731C26.2881 41.0266 25.5086 42.015 24.6594 43.08C22.9633 45.1791 21.2007 47.6007 20.5496 48.9622C19.5773 50.9924 19.0845 50.6849 17.8956 52.1268Z" fill="#707070"/>
<path d="M4.54875 91.5348C5.22919 90.8305 4.88023 89.7238 5.60535 88.7965C6.33086 87.8691 6.81951 87.9671 7.44527 86.7728C8.07173 85.577 9.071 84.615 9.2413 84.0067C9.40678 83.4176 9.89539 83.6471 10.2636 82.9612C10.277 82.9366 10.2902 82.9109 10.3032 82.884C10.6817 82.1034 11.0515 81.7153 11.6561 81.228C12.2431 80.7173 13.8812 79.0957 14.3945 78.391C14.8831 77.6444 15.907 77.3803 16.4196 77.126C16.5804 77.0456 16.7174 76.9973 16.8292 76.9691C16.8767 76.9572 16.9158 76.9754 16.9374 77.0055C16.9374 77.0055 16.9374 77.0055 16.9375 77.0056C16.9643 77.0431 16.964 77.0991 16.9201 77.1378C16.7088 77.3247 16.4086 77.633 16.1198 78.0638C15.5947 78.8721 15.2862 78.6519 14.5047 79.607C13.7483 80.5817 13.5433 81.3238 12.5134 82.3497C11.9768 82.8937 11.8687 83.3822 11.6642 83.9145C11.4791 84.3982 11.2165 84.9208 10.4859 85.6195C8.95133 87.0964 9.60477 87.7724 8.60915 89.5909C7.61507 91.4141 5.79874 93.3813 5.13192 94.4638C4.90903 94.8282 4.66221 95.2379 4.37606 95.6754C4.07116 96.1243 3.80747 96.5611 3.23857 97.1199C3.07689 97.2599 2.9341 97.4204 2.50897 97.6019C2.30834 97.682 1.92422 97.7812 1.49859 97.6497C1.064 97.514 0.820996 97.2331 0.692399 97.0466C0.272112 96.3197 0.346359 96.0444 0.289506 95.6743C0.239458 94.9685 0.207612 94.305 0.158378 93.6056C0.0701953 92.3061 -0.0617791 90.9261 0.0325765 89.6423C0.175799 87.673 0.353043 84.8993 0.493694 83.6127C0.634263 82.3304 0.665256 82.0135 0.518978 80.7879C0.435319 80.0802 0.46715 79.1105 0.684658 78.2737C0.796764 77.8556 0.960298 77.9506 1.04604 78.3645C1.17293 78.9676 1.1105 79.4723 1.32339 79.7826C1.74913 80.3941 1.91358 80.6598 1.69901 81.456C1.48473 82.254 2.0371 82.6144 1.98923 83.0759C1.94176 83.5376 1.62119 83.5413 1.94459 85.8803C2.26911 88.2243 2.37831 89.5035 2.46915 90.3913C2.53871 91.0691 2.43285 92.3205 2.44915 93.5194C2.45399 93.883 2.47232 94.2382 2.51627 94.5599C2.54989 94.8044 2.58271 95.0916 2.62834 95.3655C2.65055 95.4991 2.67957 95.6364 2.70387 95.7097C2.71392 95.7434 2.72822 95.7638 2.70504 95.7164C2.68036 95.6832 2.59992 95.475 2.2192 95.3359C1.82441 95.2175 1.60024 95.3519 1.55737 95.3684C1.50107 95.3988 1.52292 95.3898 1.55033 95.3631C1.61098 95.3083 1.71147 95.1985 1.80836 95.0793C2.00669 94.8359 2.20901 94.5488 2.38898 94.2768C2.6785 93.8379 2.92215 93.4217 3.06719 93.1157C3.56947 92.0461 3.86812 92.2352 4.54875 91.5348Z" fill="#707070"/>
</svg>
